<svg width="13" height="20" viewBox="0 0 13 20" fill="none" xmlns="http://www.w3.org/2000/svg">
<path fill-rule="evenodd" clip-rule="evenodd" d="M0 1C0 0.447715 0.447715 0 1 0H4.4375C4.85212 0 5.22374 0.255863 5.37168 0.643196C5.53922 1.08185 5.96994 1.35 6.5 1.35C7.03006 1.35 7.46078 1.08185 7.62832 0.643196C7.77626 0.255863 8.14788 0 8.5625 0H12C12.5523 0 13 0.447715 13 1V19C13 19.5523 12.5523 20 12 20H8.5625C8.14788 20 7.77626 19.7441 7.62832 19.3568C7.46078 18.9182 7.03006 18.65 6.5 18.65C5.96994 18.65 5.53922 18.9182 5.37168 19.3568C5.22374 19.7441 4.85212 20 4.4375 20H1C0.447715 20 0 19.5523 0 19V1ZM2 2V18H3.83878C4.46722 17.0816 5.51754 16.65 6.5 16.65C7.48246 16.65 8.53278 17.0816 9.16122 18H11V2H9.16122C8.53278 2.91838 7.48246 3.35 6.5 3.35C5.51754 3.35 4.46722 2.91838 3.83878 2H2Z" fill="black"/>
<path fill-rule="evenodd" clip-rule="evenodd" d="M3.125 5.5H2V4.5H3.125C3.40114 4.5 3.625 4.72386 3.625 5C3.625 5.27614 3.40114 5.5 3.125 5.5ZM4.875 5C4.875 4.72386 5.09886 4.5 5.375 4.5H7.625C7.90114 4.5 8.125 4.72386 8.125 5C8.125 5.27614 7.90114 5.5 7.625 5.5H5.375C5.09886 5.5 4.875 5.27614 4.875 5ZM9.375 5C9.375 4.72386 9.59886 4.5 9.875 4.5H11V5.5H9.875C9.59886 5.5 9.375 5.27614 9.375 5Z" fill="black"/>
</svg>
