<svg width="10" height="18" viewBox="0 0 10 18" fill="none" xmlns="http://www.w3.org/2000/svg">
<path fill-rule="evenodd" clip-rule="evenodd" d="M0.75 1C0.75 0.861929 0.861929 0.75 1 0.75H3.5C3.60935 0.75 3.706 0.821062 3.73862 0.925431C3.95743 1.62561 4.48904 1.95 5 1.95C5.51096 1.95 6.04257 1.62561 6.26138 0.925431C6.294 0.821062 6.39065 0.75 6.5 0.75H9C9.13807 0.75 9.25 0.861929 9.25 1V17C9.25 17.1381 9.13807 17.25 9 17.25H6.5C6.39065 17.25 6.294 17.1789 6.26138 17.0746C6.04257 16.3744 5.51096 16.05 5 16.05C4.48904 16.05 3.95743 16.3744 3.73862 17.0746C3.706 17.1789 3.60935 17.25 3.5 17.25H1C0.861929 17.25 0.75 17.1381 0.75 17V1ZM1.25 1.25V16.75H3.32378C3.6391 15.9639 4.31057 15.55 5 15.55C5.68943 15.55 6.3609 15.9639 6.67622 16.75H8.75V1.25H6.67622C6.3609 2.03609 5.68943 2.45 5 2.45C4.31057 2.45 3.6391 2.03609 3.32378 1.25H1.25Z" fill="black"/>
<path fill-rule="evenodd" clip-rule="evenodd" d="M1.4 5.25L1 5.25L1 4.75L1.4 4.75C1.53807 4.75 1.65 4.86193 1.65 5C1.65 5.13807 1.53807 5.25 1.4 5.25ZM1.95 5C1.95 4.86193 2.06193 4.75 2.2 4.75L3 4.75C3.13807 4.75 3.25 4.86193 3.25 5C3.25 5.13807 3.13807 5.25 3 5.25L2.2 5.25C2.06193 5.25 1.95 5.13807 1.95 5ZM3.55 5C3.55 4.86193 3.66193 4.75 3.8 4.75L4.6 4.75C4.73807 4.75 4.85 4.86193 4.85 5C4.85 5.13807 4.73807 5.25 4.6 5.25L3.8 5.25C3.66193 5.25 3.55 5.13807 3.55 5ZM5.15 5C5.15 4.86193 5.26193 4.75 5.4 4.75L6.2 4.75C6.33807 4.75 6.45 4.86193 6.45 5C6.45 5.13807 6.33807 5.25 6.2 5.25L5.4 5.25C5.26193 5.25 5.15 5.13807 5.15 5ZM6.75 5C6.75 4.86193 6.86193 4.75 7 4.75L7.8 4.75C7.93807 4.75 8.05 4.86193 8.05 5C8.05 5.13807 7.93807 5.25 7.8 5.25L7 5.25C6.86193 5.25 6.75 5.13807 6.75 5ZM8.35 5C8.35 4.86193 8.46193 4.75 8.6 4.75L9 4.75L9 5.25L8.6 5.25C8.46193 5.25 8.35 5.13807 8.35 5Z" fill="black"/>
</svg>
