<svg width="11" height="20" viewBox="0 0 11 20" fill="none" xmlns="http://www.w3.org/2000/svg">
<path fill-rule="evenodd" clip-rule="evenodd" d="M0.5 1C0.5 0.723858 0.723858 0.5 1 0.5H3.8125C4.03119 0.5 4.22451 0.642125 4.28974 0.850863C4.5086 1.55122 5.02495 1.85 5.5 1.85C5.97505 1.85 6.4914 1.55122 6.71026 0.850863C6.77549 0.642125 6.96881 0.5 7.1875 0.5H10C10.2761 0.5 10.5 0.723858 10.5 1V19C10.5 19.2761 10.2761 19.5 10 19.5H7.1875C6.96881 19.5 6.77549 19.3579 6.71026 19.1491C6.4914 18.4488 5.97505 18.15 5.5 18.15C5.02495 18.15 4.5086 18.4488 4.28974 19.1491C4.22451 19.3579 4.03119 19.5 3.8125 19.5H1C0.723858 19.5 0.5 19.2761 0.5 19V1ZM1.5 1.5V18.5H3.4707C3.87893 17.624 4.67319 17.15 5.5 17.15C6.32681 17.15 7.12107 17.624 7.5293 18.5H9.5V1.5H7.5293C7.12107 2.37602 6.32681 2.85 5.5 2.85C4.67319 2.85 3.87893 2.37602 3.4707 1.5H1.5Z" fill="black"/>
<path fill-rule="evenodd" clip-rule="evenodd" d="M1.75 5.5L1 5.5L1 4.5L1.75 4.5C2.02614 4.5 2.25 4.72386 2.25 5C2.25 5.27614 2.02614 5.5 1.75 5.5ZM2.75 5C2.75 4.72386 2.97386 4.5 3.25 4.5L4.75 4.5C5.02614 4.5 5.25 4.72386 5.25 5C5.25 5.27614 5.02614 5.5 4.75 5.5L3.25 5.5C2.97386 5.5 2.75 5.27614 2.75 5ZM5.75 5C5.75 4.72386 5.97386 4.5 6.25 4.5L7.75 4.5C8.02614 4.5 8.25 4.72386 8.25 5C8.25 5.27614 8.02614 5.5 7.75 5.5L6.25 5.5C5.97386 5.5 5.75 5.27614 5.75 5ZM8.75 5C8.75 4.72386 8.97386 4.5 9.25 4.5L10 4.5L10 5.5L9.25 5.5C8.97386 5.5 8.75 5.27614 8.75 5Z" fill="black"/>
</svg>
