<svg width="13" height="20" viewBox="0 0 13 20" fill="none" xmlns="http://www.w3.org/2000/svg">
<path fill-rule="evenodd" clip-rule="evenodd" d="M0 1C0 0.447715 0.447715 0 1 0H4.4375C4.85212 0 5.22374 0.255863 5.37168 0.643196C5.53922 1.08185 5.96994 1.35 6.5 1.35C7.03006 1.35 7.46078 1.08185 7.62832 0.643196C7.77626 0.255863 8.14788 0 8.5625 0H12C12.5523 0 13 0.447715 13 1V19C13 19.5523 12.5523 20 12 20H8.5625C8.14788 20 7.77626 19.7441 7.62832 19.3568C7.46078 18.9182 7.03006 18.65 6.5 18.65C5.96994 18.65 5.53922 18.9182 5.37168 19.3568C5.22374 19.7441 4.85212 20 4.4375 20H1C0.447715 20 0 19.5523 0 19V1ZM2 2V18H3.83878C4.46722 17.0816 5.51754 16.65 6.5 16.65C7.48246 16.65 8.53278 17.0816 9.16122 18H11V2H9.16122C8.53278 2.91838 7.48246 3.35 6.5 3.35C5.51754 3.35 4.46722 2.91838 3.83878 2H2Z" fill="black"/>
<path fill-rule="evenodd" clip-rule="evenodd" d="M3.125 6H2V4H3.125C3.67728 4 4.125 4.44772 4.125 5C4.125 5.55228 3.67728 6 3.125 6ZM4.375 5C4.375 4.44772 4.82272 4 5.375 4H7.625C8.17728 4 8.625 4.44772 8.625 5C8.625 5.55228 8.17728 6 7.625 6H5.375C4.82272 6 4.375 5.55228 4.375 5ZM8.875 5C8.875 4.44772 9.32272 4 9.875 4H11V6H9.875C9.32272 6 8.875 5.55228 8.875 5Z" fill="black"/>
</svg>
