<svg width="130" height="132" viewBox="0 0 130 132" fill="none" xmlns="http://www.w3.org/2000/svg">
<path fill-rule="evenodd" clip-rule="evenodd" d="M56.3205 21.6426C58.409 21.5383 60.2253 23.0601 60.4883 25.1346C60.8746 28.1817 62.9201 29.503 64.892 29.5757C66.813 29.6464 68.9187 28.5387 69.4985 25.3962C69.8434 23.5266 71.4566 22.1581 73.3574 22.1226L85.8552 21.8892C86.929 21.8692 87.9657 22.2817 88.7321 23.0341C89.4985 23.7864 89.9301 24.8154 89.9299 25.8893L89.9146 105.403C89.9142 107.583 88.1686 109.361 85.9893 109.402L73.4915 109.635C71.6017 109.671 69.9452 108.378 69.5195 106.537C68.6994 102.989 66.4654 101.951 64.9688 101.968C63.5623 101.985 61.6759 102.928 61.2882 106.207C61.0507 108.214 59.3531 109.729 57.3317 109.737L43.7304 109.791C42.6666 109.795 41.645 109.375 40.8914 108.624C40.1378 107.874 39.7143 106.854 39.7145 105.79L39.7298 26.2758C39.7302 24.1445 41.4016 22.3879 43.5302 22.2815L56.3205 21.6426ZM43.7298 26.2766L56.5201 25.6376C57.8104 35.8153 71.5248 36.4593 73.4321 26.1219L85.9299 25.8885L85.9146 105.403L73.4168 105.636C71.0229 95.2789 58.5252 95.5124 57.3159 105.737L43.7145 105.791L43.7298 26.2766Z" fill="black"/>
<path d="M73.4321 26.122C71.5247 36.4594 57.8103 35.8153 56.5201 25.6377L43.7298 26.2766L43.7263 44.1519L43.7145 105.791L57.3158 105.737C58.5251 95.5124 71.0229 95.279 73.4168 105.636L85.9146 105.403L85.9299 25.8886L73.4321 26.122Z" fill="black"/>
<path fill-rule="evenodd" clip-rule="evenodd" d="M42.2299 26.2763C42.23 25.4771 42.8568 24.8183 43.655 24.7784L56.4453 24.1395C57.2285 24.1004 57.9096 24.6711 58.0083 25.449C58.5563 29.7722 61.6678 31.9586 64.8 32.074C67.9131 32.1887 71.1436 30.2587 71.9571 25.8498C72.0864 25.1487 72.6914 24.6355 73.4041 24.6222L85.902 24.3888C86.3046 24.3813 86.6934 24.536 86.9808 24.8181C87.2682 25.1003 87.4301 25.4861 87.43 25.8888L87.4147 105.403C87.4145 106.22 86.7599 106.887 85.9427 106.902L73.4449 107.136C72.7362 107.149 72.115 106.664 71.9554 105.974C70.8998 101.407 67.7352 99.4356 64.9397 99.4683C62.178 99.5005 59.3289 101.488 58.8055 105.913C58.7165 106.666 58.0799 107.234 57.3219 107.237L43.7205 107.291C43.3216 107.292 42.9385 107.135 42.6559 106.853C42.3733 106.572 42.2145 106.189 42.2146 105.79L42.2299 26.2763ZM45.2296 27.7035L45.2149 104.285L56.0479 104.242C57.1436 99.2713 60.8613 96.5157 64.9047 96.4685C68.952 96.4212 72.9363 99.0883 74.5526 104.115L84.415 103.93L84.4297 27.4168L74.6261 27.5999C73.1695 32.7175 68.9136 35.2276 64.6895 35.0719C60.5328 34.9188 56.4888 32.1847 55.2834 27.2013L45.2296 27.7035Z" fill="white"/>
<path fill-rule="evenodd" clip-rule="evenodd" d="M42.3401 42.6933L45.9046 42.6605C46.7329 42.6529 47.4107 43.3182 47.4183 44.1466C47.4259 44.975 46.7605 45.6527 45.9321 45.6604L42.3677 45.6931L42.3401 42.6933ZM48.5475 44.1362C48.5399 43.3079 49.2052 42.6301 50.0336 42.6225L54.1627 42.5846C54.9911 42.5769 55.6688 43.2423 55.6764 44.0707C55.684 44.8991 55.0187 45.5768 54.1903 45.5844L50.0612 45.6224C49.2328 45.63 48.5551 44.9646 48.5475 44.1362ZM56.8056 44.0603C56.798 43.2319 57.4634 42.5542 58.2918 42.5466L62.4208 42.5086C63.2492 42.501 63.9269 43.1664 63.9346 43.9948C63.9422 44.8232 63.2768 45.5009 62.4484 45.5085L58.3194 45.5465C57.491 45.5541 56.8132 44.8887 56.8056 44.0603ZM65.0638 43.9844C65.0561 43.156 65.7215 42.4783 66.5499 42.4707L70.679 42.4327C71.5074 42.4251 72.1851 43.0904 72.1927 43.9188C72.2003 44.7472 71.535 45.4249 70.7066 45.4326L66.5775 45.4705C65.7491 45.4781 65.0714 44.8128 65.0638 43.9844ZM73.3219 43.9084C73.3143 43.08 73.9797 42.4023 74.808 42.3947L78.9371 42.3567C79.7655 42.3491 80.4432 43.0145 80.4509 43.8429C80.4585 44.6713 79.7931 45.349 78.9647 45.3566L74.8356 45.3946C74.0072 45.4022 73.3295 44.7368 73.3219 43.9084ZM81.58 43.8325C81.5724 43.0041 82.2378 42.3264 83.0662 42.3188L86.6307 42.286L86.6582 45.2859L83.0938 45.3187C82.2654 45.3263 81.5877 44.6609 81.58 43.8325Z" fill="white"/>
</svg>
