<svg width="165" height="166" viewBox="0 0 165 166" fill="none" xmlns="http://www.w3.org/2000/svg">
<path fill-rule="evenodd" clip-rule="evenodd" d="M88.4989 38.2448C90.5078 38.8249 91.731 40.8545 91.3054 42.9018C90.6804 45.909 92.1853 47.8234 94.0265 48.533C95.8203 49.2243 98.1716 48.8611 99.7413 46.0777C100.675 44.4217 102.646 43.6519 104.455 44.2361L116.35 48.0775C117.372 48.4075 118.218 49.1346 118.698 50.0952C119.179 51.0558 119.252 52.1692 118.903 53.1847L93.0447 128.377C92.3359 130.438 90.1072 131.552 88.0329 130.882L76.1378 127.041C74.3392 126.46 73.1926 124.7 73.3886 122.82C73.7663 119.198 71.9909 117.49 70.5699 117.02C69.2344 116.578 67.1437 116.858 65.7115 119.832C64.8345 121.653 62.7367 122.534 60.8225 121.885L47.9421 117.515C46.9347 117.173 46.105 116.444 45.6363 115.489C45.1676 114.534 45.0986 113.432 45.4446 112.426L71.303 37.234C71.9961 35.2186 74.1477 34.1006 76.1953 34.6919L88.4989 38.2448ZM75.0856 38.5348L87.3891 42.0878C85.3013 52.1322 98.0618 57.1988 103.225 48.0426L115.121 51.8839L89.2621 127.076L77.367 123.235C78.4695 112.662 66.5744 108.82 62.1076 118.097L49.2271 113.727L75.0856 38.5348Z" fill="white"/>
<path d="M103.226 48.0425C98.0619 57.1987 85.3014 52.1321 87.3892 42.0877L75.0857 38.5348L69.2725 55.4384L49.2272 113.727L62.1076 118.097C66.5745 108.82 78.4695 112.662 77.3671 123.235L89.2622 127.076L115.121 51.8838L103.226 48.0425Z" fill="white"/>
<path fill-rule="evenodd" clip-rule="evenodd" d="M73.6671 38.047C73.927 37.2912 74.7339 36.872 75.5018 37.0937L87.8053 40.6466C88.5586 40.8642 89.0173 41.6253 88.8577 42.393C87.9709 46.6596 90.2029 49.7386 93.1275 50.8658C96.0342 51.986 99.7166 51.2108 101.919 47.3057C102.269 46.6847 103.008 46.396 103.686 46.6151L115.582 50.4565C115.965 50.5803 116.282 50.8529 116.462 51.2131C116.642 51.5734 116.67 51.9909 116.539 52.3717L90.6806 127.564C90.4148 128.337 89.579 128.755 88.8012 128.503L76.9061 124.662C76.2316 124.444 75.8016 123.784 75.8751 123.079C76.3613 118.417 74.0092 115.524 71.3548 114.646C68.7326 113.779 65.392 114.733 63.459 118.747C63.1302 119.43 62.3435 119.761 61.6257 119.517L48.7452 115.147C48.3675 115.019 48.0563 114.746 47.8806 114.388C47.7048 114.03 47.6789 113.616 47.8087 113.239L73.6671 38.047ZM76.0401 40.3718L51.1354 112.79L61.3943 116.271C64.046 111.926 68.4575 110.529 72.2967 111.798C76.1397 113.069 79.0408 116.886 78.9356 122.165L88.3224 125.196L113.205 52.8416L103.874 49.8283C100.833 54.1947 95.9927 55.1851 92.0486 53.6651C88.1673 52.1692 85.2315 48.2691 85.7113 43.1645L76.0401 40.3718Z" fill="black"/>
<path fill-rule="evenodd" clip-rule="evenodd" d="M68.4356 53.6085L71.8172 54.736C72.6031 54.998 73.0278 55.8476 72.7657 56.6335C72.5037 57.4193 71.6542 57.844 70.8683 57.582L67.4867 56.4544L68.4356 53.6085ZM73.837 56.9907C74.099 56.2048 74.9486 55.7801 75.7344 56.0421L79.6517 57.3483C80.4376 57.6103 80.8622 58.4598 80.6002 59.2457C80.3381 60.0316 79.4886 60.4563 78.7027 60.1942L74.7855 58.8881C73.9996 58.6261 73.5749 57.7765 73.837 56.9907ZM81.6714 59.6029C81.9335 58.817 82.783 58.3924 83.5689 58.6544L87.4861 59.9606C88.272 60.2226 88.6967 61.0721 88.4346 61.858C88.1726 62.6439 87.3231 63.0686 86.5372 62.8065L82.62 61.5004C81.8341 61.2383 81.4094 60.3888 81.6714 59.6029ZM89.5059 62.2152C89.7679 61.4293 90.6175 61.0047 91.4033 61.2667L95.3206 62.5728C96.1065 62.8349 96.5311 63.6844 96.2691 64.4703C96.007 65.2562 95.1575 65.6809 94.3716 65.4188L90.4544 64.1127C89.6685 63.8506 89.2439 63.0011 89.5059 62.2152ZM97.3403 64.8275C97.6024 64.0416 98.4519 63.6169 99.2378 63.879L103.155 65.1851C103.941 65.4472 104.366 66.2967 104.104 67.0826C103.841 67.8685 102.992 68.2931 102.206 68.0311L98.2889 66.7249C97.503 66.4629 97.0783 65.6134 97.3403 64.8275ZM105.175 67.4398C105.437 66.6539 106.286 66.2292 107.072 66.4913L110.454 67.6188L109.505 70.4648L106.123 69.3372C105.337 69.0752 104.913 68.2257 105.175 67.4398Z" fill="black"/>
</svg>
