<svg xmlns="http://www.w3.org/2000/svg" width="130" height="132" fill="none"><path fill="#000" fill-rule="evenodd" d="M56.32 21.643a4 4 0 0 1 4.168 3.492c.387 3.047 2.432 4.368 4.404 4.44 1.921.071 4.027-1.036 4.607-4.179a4 4 0 0 1 3.858-3.273l12.498-.234a4 4 0 0 1 4.075 4l-.015 79.514a4 4 0 0 1-3.926 3.999l-12.498.233a4 4 0 0 1-3.972-3.098c-.82-3.548-3.054-4.586-4.55-4.569-1.407.017-3.293.96-3.68 4.239a4 4 0 0 1-3.957 3.53l-13.602.054a4 4 0 0 1-4.015-4.001l.015-79.514a4 4 0 0 1 3.8-3.994l12.79-.64Zm-12.59 4.634 12.79-.64c1.29 10.178 15.005 10.822 16.912.485l12.498-.233-.015 79.514-12.498.233c-2.394-10.357-14.892-10.124-16.101.101l-13.602.054.016-79.514Z" clip-rule="evenodd"/><path fill="#000" d="M73.432 26.122c-1.907 10.337-15.622 9.693-16.912-.484l-12.79.639-.004 17.875-.011 61.639 13.6-.054c1.21-10.225 13.708-10.458 16.102-.101l12.498-.233.015-79.514-12.498.233Z"/><path fill="#fff" fill-rule="evenodd" d="M42.23 26.276a1.5 1.5 0 0 1 1.425-1.498l12.79-.638a1.5 1.5 0 0 1 1.563 1.309c.548 4.323 3.66 6.51 6.792 6.625 3.113.115 6.344-1.815 7.157-6.224a1.5 1.5 0 0 1 1.447-1.228l12.498-.233a1.5 1.5 0 0 1 1.528 1.5l-.015 79.514a1.5 1.5 0 0 1-1.472 1.499l-12.498.234a1.5 1.5 0 0 1-1.49-1.162c-1.055-4.567-4.22-6.538-7.015-6.506-2.762.032-5.611 2.02-6.134 6.445a1.5 1.5 0 0 1-1.484 1.324l-13.602.054a1.501 1.501 0 0 1-1.505-1.501l.015-79.514Zm3 1.427-.015 76.582 10.833-.043c1.096-4.97 4.813-7.726 8.857-7.773 4.047-.048 8.031 2.62 9.648 7.646l9.862-.185.015-76.513-9.804.183c-1.457 5.117-5.712 7.628-9.937 7.472-4.156-.153-8.2-2.887-9.406-7.87l-10.053.501Z" clip-rule="evenodd"/><path fill="#fff" fill-rule="evenodd" d="m42.34 42.693 3.565-.032a1.5 1.5 0 1 1 .027 3l-3.564.032-.028-3Zm6.207 1.443a1.5 1.5 0 0 1 1.487-1.514l4.129-.037a1.5 1.5 0 1 1 .027 3l-4.129.037a1.5 1.5 0 0 1-1.514-1.486Zm8.259-.076a1.5 1.5 0 0 1 1.486-1.513l4.129-.038a1.5 1.5 0 0 1 .027 3l-4.129.038a1.5 1.5 0 0 1-1.513-1.487Zm8.258-.076a1.5 1.5 0 0 1 1.486-1.513l4.129-.038a1.5 1.5 0 1 1 .028 3l-4.13.038a1.5 1.5 0 0 1-1.513-1.487Zm8.258-.076a1.5 1.5 0 0 1 1.486-1.513l4.13-.038a1.5 1.5 0 0 1 .027 3l-4.13.038a1.5 1.5 0 0 1-1.513-1.487Zm8.258-.075a1.5 1.5 0 0 1 1.486-1.514l3.565-.033.027 3-3.564.033a1.5 1.5 0 0 1-1.514-1.486Z" clip-rule="evenodd"/></svg>